<svg xmlns="http://www.w3.org/2000/svg" width="224" height="24" viewBox="0 0 224 24">
    <path fill="#000" fill-rule="evenodd" d="M10.737 24H0c0-5.891 4.776-10.667 10.667-10.667H21.473C21.473 19.224 16.697 24 10.806 24h-.07zm0-13.333h-.07C4.776 10.667 0 5.89 0 0h10.807c5.89 0 10.666 4.776 10.666 10.667H10.737zm29.82 10.822c-2.058 0-3.654-.563-4.788-1.69-1.134-1.126-1.797-2.223-1.99-3.289-.191-1.066-.287-2.543-.287-4.433 0-1.976.091-3.47.275-4.485.183-1.014.667-1.91 1.452-2.69.785-.78 1.61-1.348 2.473-1.704.864-.355 1.819-.533 2.866-.533 1.832 0 3.385.512 4.658 1.534 1.274 1.023 2.076 2.522 2.408 4.498h-4.658c-.175-.624-.437-1.109-.786-1.456-.349-.346-.88-.52-1.596-.52-.419 0-.776.065-1.073.195-.297.13-.55.334-.759.611-.21.278-.375.724-.497 1.34-.122.615-.183 1.685-.183 3.21 0 1.578.052 2.648.157 3.211.104.564.322 1.062.654 1.495.331.434.898.65 1.701.65.698 0 1.226-.177 1.583-.533.358-.355.624-.836.799-1.443h4.658c-.332 1.976-1.13 3.476-2.395 4.498-1.265 1.023-2.822 1.534-4.671 1.534zm16.017-.156V2.821h4.58v14.456h7.825v4.056H56.574zm21.617 0V2.821h12.666v4.056H82.77v3.094h6.91v4.056h-6.91v3.25h8.087v4.056H78.191zm37.135 0h-3.794l-1.1-3.276h-6.62l-1.126 3.276h-3.795l6.778-18.512h2.853l6.804 18.512zm-5.862-6.318h-4.632l2.355-6.734 2.277 6.734zm28.97 6.318h-3.245l-7.38-11.362v11.362h-3.637V2.821h3.245l7.38 11.336V2.821h3.638v18.512zm24.444 0h-2.33l-4.24-8.216h-4.474v8.216h-1.99V2.821h7.145c1.64 0 2.97.464 3.991 1.391 1.02.928 1.531 2.18 1.531 3.757 0 1.318-.366 2.41-1.099 3.276-.733.867-1.718 1.43-2.957 1.69l4.423 8.398zm-2.356-13.338c0 1.092-.336 1.929-1.007 2.51-.672.58-1.575.87-2.709.87h-4.972V4.59h4.972c1.117 0 2.015.295 2.696.884.68.59 1.02 1.43 1.02 2.522zm15.022 13.338h-1.989V2.821h1.989v18.512zm24.862-9.256c0 1.248-.018 2.202-.053 2.86-.035.659-.183 1.426-.445 2.301-.261.876-.645 1.59-1.151 2.145-1.204 1.3-2.835 1.95-4.894 1.95h-6.385V2.821h6.385c2.059 0 3.69.65 4.894 1.95.506.555.89 1.27 1.151 2.145.262.876.41 1.643.445 2.301.035.659.053 1.612.053 2.86zm-1.99 0c0 1.092-.017 1.933-.052 2.522a10.32 10.32 0 0 1-.327 1.95c-.183.711-.466 1.266-.85 1.664-.82.902-2.041 1.352-3.664 1.352h-4.056V4.59h4.056c1.623 0 2.844.451 3.664 1.352.384.399.667.954.85 1.664.183.711.293 1.361.327 1.95.035.59.053 1.43.053 2.522zm24.784 9.256h-11.567V2.821H223.2V4.59h-9.578v6.526h8.165v1.768h-8.165v6.682h9.578v1.768z"/>
</svg>
